PathFileType	4	(X/Y/Z)	./resultDataOpenSim/trcMotMarkerGrf/sub06/qtm-12-06.trc
DataRate	CameraRate	NumFrames	NumMarkers	Units	OrigDataRate	OrigDataStartFrame	OrigNumFrames
250.000000	250.000000	10	24	m	250.000000	337	538
Frame#	Time	L.Toe.Tip			R.Toe.Tip			L.Ankle.Lat			R.Ankle.Lat			L.Ankle.Med			R.Ankle.Med			L.Heel			R.Heel			L.Knee.Lat			R.Knee.Lat			L.Knee.Med			R.Knee.Med			L.Thigh.Upper			R.Thigh.Upper			L.ASIS			R.ASIS			V.Sacral			L.Acromium			R.Acromium			C7			L.Elbow			R.Elbow			L.Wrist.Lat			R.Wrist.Lat
		X1	Y1	Z1	X2	Y2	Z2	X3	Y3	Z3	X4	Y4	Z4	X5	Y5	Z5	X6	Y6	Z6	X7	Y7	Z7	X8	Y8	Z8	X9	Y9	Z9	X10	Y10	Z10	X11	Y11	Z11	X12	Y12	Z12	X13	Y13	Z13	X14	Y14	Z14	X15	Y15	Z15	X16	Y16	Z16	X17	Y17	Z17	X18	Y18	Z18	X19	Y19	Z19	X20	Y20	Z20	X21	Y21	Z21	X22	Y22	Z22	X23	Y23	Z23	X24	Y24	Z24

337	1.344	0.4825273	0.11245202	-0.086848884	0.92558812	0.035664096	0.022575361	0.48600906	0.24259784	-0.12334882	0.78951194	0.058361268	0.053330845	0.51155349	0.24971271	-0.042766901	0.80559073	0.085430486	-0.03220993	0.44254714	0.30129765	-0.072709702	0.73248328	0.040525266	-0.0039868905	0.81830457	0.40396041	-0.178317	0.86861904	0.43873345	0.1059317	0.8331696	0.39048708	-0.054805415	0.82861993	0.4371198	-0.016646659	0.71759379	0.78472752	-0.14859076	0.77401809	0.80072754	0.18952536	0.79857231	0.83758087	-0.12317953	0.84724691	0.85815668	0.12081305	0.63734523	0.91936686	0.03779407	0.74529669	1.3346105	-0.17040981	0.76728186	1.3053246	0.19083591	0.6751419	1.356589	0.016564728	0.74388344	1.0059024	-0.23001505	0.70296114	0.9956993	0.26150378	0.95411709	0.87702898	-0.20161863	0.8639205	0.81968184	0.3208801
338	1.348	0.49777162	0.11275933	-0.088283143	0.92552551	0.035677108	0.022623843	0.49937695	0.24296413	-0.12455977	0.7893734	0.058462074	0.053519009	0.52444879	0.25026531	-0.043813044	0.80553452	0.085725858	-0.031990499	0.45473036	0.3009237	-0.073636025	0.73242341	0.040715433	-0.0038310757	0.83027577	0.40726462	-0.17814139	0.86928039	0.43886914	0.10619175	0.84443184	0.39391584	-0.054356829	0.82934592	0.43755408	-0.016440086	0.72415097	0.78679137	-0.14866421	0.77763942	0.80155789	0.18945949	0.80472029	0.83957915	-0.12252063	0.85204738	0.85952979	0.12192399	0.64284537	0.92086324	0.037381052	0.75075965	1.336323	-0.1703124	0.77259268	1.3073294	0.19085495	0.68058094	1.3582015	0.016568137	0.74708883	1.0081714	-0.23048433	0.71093678	0.99676059	0.26174596	0.95460848	0.87517197	-0.20350653	0.87703251	0.82423696	0.31853565
339	1.352	0.51310905	0.11287603	-0.089801291	0.92545763	0.035690959	0.022673129	0.51272949	0.24308508	-0.12573538	0.78917793	0.058594995	0.053750333	0.53740106	0.25055564	-0.044847729	0.8054763	0.0860138	-0.031768891	0.46693197	0.30025501	-0.074545976	0.73234066	0.040928491	-0.0036510395	0.84221365	0.41060408	-0.17785571	0.86992341	0.43901518	0.10642428	0.85539044	0.39739343	-0.053778322	0.82971267	0.43795933	-0.016202432	0.73079277	0.78887239	-0.14880341	0.78148734	0.80246933	0.18954817	0.81071749	0.841561	-0.12184812	0.85686088	0.86090481	0.12294857	0.64828864	0.92232287	0.036980825	0.75626484	1.3380088	-0.1702008	0.77790182	1.3093238	0.19088607	0.68602345	1.3597932	0.016554608	0.75026986	1.0104227	-0.2308195	0.71886963	0.99786193	0.26200345	0.95505366	0.87342504	-0.20539925	0.89003336	0.82897082	0.31615734
340	1.356	0.52858256	0.1128084	-0.091457683	0.9253932	0.035706267	0.022723375	0.52605476	0.24296243	-0.12685902	0.788997	0.05874631	0.053983749	0.55046985	0.25058271	-0.045886866	0.80543683	0.086285536	-0.031554393	0.47916365	0.29930024	-0.075526733	0.73223229	0.041170921	-0.0034461963	0.85407335	0.4139738	-0.17746792	0.87054821	0.43916492	0.10662884	0.86620613	0.40086007	-0.053119344	0.82972819	0.43832458	-0.016000599	0.73752036	0.79097595	-0.14899006	0.78569976	0.80347165	0.18973594	0.81659596	0.84355237	-0.12108958	0.86168592	0.86227938	0.12389004	0.65375392	0.92374065	0.036556151	0.76181827	1.339661	-0.17007809	0.78320922	1.3113034	0.19092838	0.69147708	1.361367	0.016506694	0.75334971	1.0126335	-0.23099861	0.72679031	0.9990123	0.26227817	0.95545767	0.87178823	-0.20729964	0.90292113	0.83386379	0.3137452
341	1.36	0.54421342	0.11256659	-0.093260069	0.92533903	0.035722751	0.02277065	0.53936284	0.24262246	-0.12792844	0.7888855	0.058896738	0.054175485	0.56369534	0.25033896	-0.046938484	0.8054268	0.086537895	-0.031365754	0.49142361	0.2980599	-0.076537011	0.7321208	0.041440434	-0.0032550721	0.86582606	0.41736696	-0.17698796	0.87114868	0.43930897	0.10680849	0.87701787	0.40431061	-0.052431599	0.82958632	0.43864208	-0.015857321	0.74434686	0.79310808	-0.14917386	0.79015285	0.80449349	0.18986987	0.82259652	0.84559404	-0.12018165	0.86651894	0.86364776	0.12475453	0.65925124	0.9251334	0.036096804	0.76741745	1.3412693	-0.1699487	0.788515	1.313265	0.19097797	0.69694962	1.3629182	0.016425458	0.75632052	1.0148019	-0.23107793	0.73472387	1.0002103	0.26256886	0.95581877	0.87025027	-0.20922438	0.91568201	0.83889337	0.31129109
342	1.364	0.5599928	0.11215922	-0.095182603	0.92529951	0.035737658	0.022809836	0.55267339	0.24209613	-0.12895717	0.7888401	0.059036663	0.054311023	0.57703297	0.24982033	-0.04797404	0.80544847	0.0867762	-0.03121316	0.503698	0.29654417	-0.077482021	0.73204502	0.041726435	-0.0031283635	0.87746896	0.42077609	-0.17642244	0.8717198	0.43944363	0.10696152	0.88789656	0.4077849	-0.051741466	0.82957584	0.43891101	-0.01577571	0.75129483	0.79526159	-0.14931215	0.79462625	0.80545712	0.1898946	0.82895208	0.84766771	-0.11922416	0.87135785	0.86499899	0.12554723	0.66473705	0.92652378	0.035617757	0.77305051	1.3428267	-0.16981671	0.79381939	1.3152042	0.19102994	0.70244134	1.3644417	0.016340756	0.75921696	1.0169351	-0.23113515	0.74268133	1.001442	0.26287737	0.95613873	0.86879433	-0.21118943	0.92827333	0.84404494	0.30878714
343	1.368	0.57589207	0.11158589	-0.097182956	0.92527777	0.035748114	0.022838746	0.56600887	0.2413966	-0.1299633	0.78883685	0.059167534	0.054398373	0.59036626	0.24904541	-0.048944864	0.80550338	0.087011694	-0.031091566	0.51597516	0.2947647	-0.078315883	0.73203366	0.042018473	-0.0030845193	0.8890117	0.42419656	-0.17576987	0.87226614	0.43957342	0.10708279	0.89881274	0.41131241	-0.051029857	0.82981564	0.4391435	-0.015754908	0.75836032	0.79740787	-0.14945101	0.79898218	0.80633458	0.18989825	0.83566279	0.84973343	-0.1183757	0.87620126	0.86631616	0.12627337	0.6701784	0.92791421	0.035132452	0.77870563	1.3443256	-0.169682	0.79912363	1.3171137	0.19108202	0.70794221	1.3659348	0.016288726	0.76206972	1.0190355	-0.23121493	0.75065182	1.0026883	0.26320833	0.9564287	0.86741076	-0.21319374	0.94064125	0.84931784	0.30622754
344	1.372	0.59188717	0.11083779	-0.099223316	0.9252763	0.035754222	0.022859587	0.57938022	0.24052475	-0.13095729	0.78886714	0.059297748	0.054450611	0.60361576	0.24805265	-0.049842451	0.80559484	0.087254729	-0.030988631	0.52825781	0.29272073	-0.079071532	0.73209222	0.042314841	-0.003104168	0.90046495	0.42762053	-0.17502177	0.87280527	0.43970725	0.10716989	0.90967455	0.41488516	-0.050251388	0.83030309	0.43934548	-0.015787059	0.76547204	0.79950987	-0.14974414	0.80329591	0.80716865	0.18997443	0.84252664	0.85178898	-0.11767606	0.8810455	0.86758288	0.12693714	0.67557419	0.92928783	0.034644424	0.78438112	1.3457578	-0.16954141	0.80442964	1.3189843	0.19113438	0.71344116	1.3673936	0.016278695	0.76489455	1.0210998	-0.23132182	0.7586027	1.0039364	0.26356552	0.95670525	0.8661011	-0.21521581	0.95278558	0.85471641	0.30361401
345	1.376	0.60802033	0.10992101	-0.10131375	0.92529486	0.035758456	0.022877133	0.59279277	0.23948054	-0.13195414	0.78892865	0.059438978	0.054481814	0.61677698	0.24687182	-0.050700351	0.80572356	0.087510322	-0.030894743	0.54056208	0.29040438	-0.079807295	0.73220477	0.042619858	-0.0031553986	0.91182674	0.43103376	-0.17417699	0.87335885	0.4398506	0.10722335	0.9204182	0.41847232	-0.04936384	0.83095995	0.43952953	-0.015863964	0.7725215	0.80155413	-0.15032529	0.80777261	0.80802968	0.19006387	0.8493551	0.85385652	-0.11706581	0.88588804	0.86879246	0.12753643	0.68094624	0.93062333	0.034153386	0.79008321	1.3471226	-0.16939298	0.80973936	1.3208086	0.19118913	0.7189338	1.3688183	0.016296806	0.76769936	1.0231237	-0.23144016	0.76650143	1.0051827	0.2639521	0.9569755	0.86486246	-0.21723264	0.96477201	0.86023872	0.30095228
346	1.38	0.62442381	0.10887784	-0.10352238	0.92532843	0.035762746	0.022895896	0.60625928	0.23826826	-0.13297974	0.78901019	0.059600164	0.054506132	0.62987483	0.24550457	-0.051534776	0.80588283	0.087778773	-0.030807316	0.55290983	0.28781215	-0.080557424	0.73233513	0.042938118	-0.003208977	0.92306932	0.43442536	-0.17325475	0.87393952	0.44000121	0.10724617	0.93102748	0.42203934	-0.048338969	0.83159447	0.43972797	-0.015981109	0.77946502	0.8035715	-0.15116324	0.8124491	0.80893724	0.19003254	0.85606936	0.85595047	-0.11649975	0.8907405	0.86994621	0.12806065	0.68632544	0.93190642	0.033661329	0.79581396	1.3484261	-0.16923867	0.81505393	1.3225838	0.19124873	0.72442324	1.3702131	0.016329228	0.77049132	1.0251008	-0.23155585	0.77434231	1.0064247	0.26436757	0.95722379	0.86367665	-0.21924102	0.97668035	0.86588232	0.29823299
